<svg width="321" height="321" viewBox="0 0 321 321" fill="none" xmlns="http://www.w3.org/2000/svg">
<circle cx="160.5" cy="160.5" r="160.5" fill="#DBD2FF"/>
<path fill-rule="evenodd" clip-rule="evenodd" d="M64.0373 288.789C25.1461 259.5 0 212.937 0 160.5C0 71.8583 71.8583 0 160.5 0C249.142 0 321 71.8583 321 160.5C321 212.937 295.854 259.5 256.963 288.789C256.127 258.495 241.33 231.69 218.776 214.576C231.946 200.389 240 181.385 240 160.5C240 116.593 204.407 81 160.5 81C116.593 81 81 116.593 81 160.5C81 181.385 89.0535 200.389 102.224 214.576C79.6698 231.69 64.8728 258.495 64.0373 288.789Z" fill="#9B83FA"/>
</svg>
